<?xml version="1.0" encoding="UTF-8"?>
<svg width="382px" height="316px" viewBox="0 0 382 316" version="1.1" xmlns="http://www.w3.org/2000/svg" xmlns:xlink="http://www.w3.org/1999/xlink">
    <!-- Generator: Sketch 41.2 (35397) - http://www.bohemiancoding.com/sketch -->
    <title>Page 1</title>
    <desc>Created with Sketch.</desc>
    <defs>
        <polygon id="path-1" points="0 316 381.104 316 381.104 0.053 0 0.053"></polygon>
    </defs>
    <g id="Page-1" stroke="none" stroke-width="1" fill="none" fill-rule="evenodd">
        <g transform="translate(0.000000, -1.000000)">
            <g>
                <path d="M316.1438,209.257 L21.9928,289.009" id="Stroke-1" stroke="#E0E0E0" stroke-width="2"></path>
                <path d="M64.2998,208.9648 L359.5288,289.0098" id="Stroke-2" stroke="#E0E0E0" stroke-width="2"></path>
                <g id="Group-6" transform="translate(1.000000, 175.947000)" stroke-linecap="round" stroke-width="2" stroke="#444444" stroke-linejoin="round">
                    <polygon id="Stroke-3" points="0 17.757 379.104 17.757 379.104 11.646 0 11.646"></polygon>
                    <polygon id="Stroke-5" points="0 11.6456 5.769 0.8806 373.335 0.8806 379.104 11.6456"></polygon>
                </g>
                <polygon id="Stroke-7" stroke="#444444" stroke-width="2" stroke-linecap="round" stroke-linejoin="round" points="16.866 208.965 125.866 208.965 125.866 193.704 16.866 193.704"></polygon>
                <polygon id="Stroke-8" stroke="#444444" stroke-width="2" stroke-linecap="round" stroke-linejoin="round" points="255.238 208.965 364.335 208.965 364.335 193.704 255.238 193.704"></polygon>
                <g id="Group-15" transform="translate(8.000000, 192.947000)" stroke="#444444" stroke-width="2" stroke-linecap="round" stroke-linejoin="round">
                    <path d="M0.0132,0.757 L0.0132,122.844" id="Stroke-9"></path>
                    <path d="M8.7692,122.8436 L8.7692,0.7566" id="Stroke-11"></path>
                    <path d="M8.7692,122.8436 L0.0132,122.8436" id="Stroke-13"></path>
                </g>
                <path d="M21.2444,303.8953 L21.2444,208.9653" id="Stroke-16" stroke="#444444" stroke-width="2" stroke-linecap="round" stroke-linejoin="round"></path>
                <path d="M21.2444,303.8953 L16.7694,303.8953" id="Stroke-17" stroke="#444444" stroke-width="2" stroke-linecap="round" stroke-linejoin="round"></path>
                <g id="Group-24" transform="translate(364.000000, 192.947000)" stroke="#444444" stroke-width="2" stroke-linecap="round" stroke-linejoin="round">
                    <path d="M9.0907,0.757 L9.0907,122.844" id="Stroke-18"></path>
                    <path d="M0.3347,122.8436 L0.3347,0.7566" id="Stroke-20"></path>
                    <path d="M0.3347,122.8436 L9.0907,122.8436" id="Stroke-22"></path>
                </g>
                <path d="M359.8595,303.8953 L359.8595,208.9653" id="Stroke-25" stroke="#444444" stroke-width="2" stroke-linecap="round" stroke-linejoin="round"></path>
                <path d="M359.8595,303.8953 L364.3345,303.8953" id="Stroke-26" stroke="#444444" stroke-width="2" stroke-linecap="round" stroke-linejoin="round"></path>
                <path d="M125.8661,208.9648 L134.0441,193.7038" id="Stroke-27" stroke="#444444" stroke-width="2" stroke-linecap="round" stroke-linejoin="round"></path>
                <path d="M255.2378,208.9648 L247.0598,193.7038" id="Stroke-28" stroke="#444444" stroke-width="2" stroke-linecap="round" stroke-linejoin="round"></path>
                <polyline id="Stroke-29" stroke="#444444" stroke-width="2" stroke-linecap="round" stroke-linejoin="round" points="46.7554 181.5029 30.2264 181.5029 21.9684 181.5029 13.7104 181.5029"></polyline>
                <g id="Group-184" transform="translate(0.000000, 0.947000)">
                    <path d="M30.2267,180.5558 L21.9687,180.5558 C21.9687,178.2828 23.8187,176.4328 26.1037,176.4328 C28.3767,176.4328 30.2267,178.2828 30.2267,180.5558 L30.2267,180.5558 Z" id="Stroke-30" stroke="#444444" stroke-width="2" stroke-linecap="round" stroke-linejoin="round"></path>
                    <path d="M2.7825,149.8899 L24.5305,171.6379" id="Stroke-32" stroke="#444444" stroke-width="2" stroke-linecap="round" stroke-linejoin="round"></path>
                    <path d="M5.8953,146.7771 L27.6433,168.5251" id="Stroke-34" stroke="#444444" stroke-width="2" stroke-linecap="round" stroke-linejoin="round"></path>
                    <path d="M30.9502,118.6095 L2.7822,146.7775" id="Stroke-36" stroke="#444444" stroke-width="2" stroke-linecap="round" stroke-linejoin="round"></path>
                    <path d="M34.063,121.7222 L5.895,149.8902" id="Stroke-38" stroke="#444444" stroke-width="2" stroke-linecap="round" stroke-linejoin="round"></path>
                    <path d="M2.7825,149.8899 C3.6425,150.7499 5.0355,150.7499 5.8955,149.8899 C6.7545,149.0299 6.7545,147.6369 5.8955,146.7769 C5.0355,145.9179 3.6425,145.9179 2.7825,146.7769 C1.9225,147.6369 1.9225,149.0299 2.7825,149.8899 L2.7825,149.8899 Z" id="Stroke-40" stroke="#444444" stroke-width="2" stroke-linecap="round" stroke-linejoin="round"></path>
                    <path d="M24.5303,171.6377 C25.3903,172.4977 26.7833,172.4977 27.6433,171.6377 C28.5023,170.7777 28.5023,169.3847 27.6433,168.5247 C26.7833,167.6657 25.3903,167.6657 24.5303,168.5247 C23.6703,169.3847 23.6703,170.7777 24.5303,171.6377 L24.5303,171.6377 Z" id="Stroke-42" stroke="#444444" stroke-width="2" stroke-linecap="round" stroke-linejoin="round"></path>
                    <path d="M30.9502,121.7222 C31.8102,122.5822 33.2032,122.5822 34.0632,121.7222 C34.9222,120.8622 34.9222,119.4692 34.0632,118.6092 C33.2032,117.7502 31.8102,117.7502 30.9502,118.6092 C30.0902,119.4692 30.0902,120.8622 30.9502,121.7222 L30.9502,121.7222 Z" id="Stroke-44" stroke="#444444" stroke-width="2" stroke-linecap="round" stroke-linejoin="round"></path>
                    <path d="M36.9866,112.772 L38.5426,114.328 L39.4836,116.312 C38.6706,116.713 37.6616,116.56 36.9866,115.884 C36.1226,115.021 36.1226,113.636 36.9866,112.772 L36.9866,112.772 Z" id="Stroke-46" stroke="#444444" stroke-width="2" stroke-linecap="round" stroke-linejoin="round"></path>
                    <polygon id="Stroke-48" stroke="#444444" stroke-width="2" stroke-linecap="round" stroke-linejoin="round" points="41.5608 99.2377 47.5968 105.2737 38.5428 114.3277 32.5068 108.2917"></polygon>
                    <polygon id="Stroke-50" stroke="#444444" stroke-width="2" stroke-linecap="round" stroke-linejoin="round" points="60.6439 111.464 44.7329 127.375 39.4829 116.312 38.5429 114.328 47.5969 105.274"></polygon>
                    <path d="M36.9866,115.8842 L34.2676,118.6032" id="Stroke-52" stroke="#444444" stroke-width="2" stroke-linecap="round" stroke-linejoin="round"></path>
                    <path d="M26.1035,176.4328 L26.1035,172.2828" id="Stroke-54" stroke="#444444" stroke-width="2" stroke-linecap="round" stroke-linejoin="round"></path>
                    <path d="M133.7691,26.9578 C133.7691,38.4388 124.4621,47.7458 112.9811,47.7458 C101.5001,47.7458 92.1931,38.4388 92.1931,26.9578 C92.1931,15.4768 101.5001,6.1698 112.9811,6.1698 C124.4621,6.1698 133.7691,15.4768 133.7691,26.9578" id="Fill-56" fill="#E0E0E0"></path>
                    <path d="M138.7625,26.9578 C138.7625,41.1968 127.2195,52.7388 112.9815,52.7388 C98.7425,52.7388 87.1995,41.1968 87.1995,26.9578 C87.1995,12.7188 98.7425,1.1768 112.9815,1.1768 C127.2195,1.1768 138.7625,12.7188 138.7625,26.9578 L138.7625,26.9578 Z" id="Stroke-58" stroke="#444444" stroke-width="2" stroke-linecap="round" stroke-linejoin="round"></path>
                    <path d="M112.9811,26.9578 L112.9811,9.1808" id="Stroke-60" stroke="#444444" stroke-width="2" stroke-linecap="round" stroke-linejoin="round"></path>
                    <path d="M112.9811,26.9578 L120.7481,19.1908" id="Stroke-62" stroke="#444444" stroke-width="2" stroke-linecap="round" stroke-linejoin="round"></path>
                    <mask id="mask-2" fill="white">
                        <use xlink:href="#path-1"></use>
                    </mask>
                    <g id="Clip-65"></g>
                    <polygon id="Fill-64" fill="#F3838B" mask="url(#mask-2)" points="240.944 43.05 248.992 43.05 248.992 35.002 240.944 35.002"></polygon>
                    <polygon id="Fill-66" fill="#F3838B" mask="url(#mask-2)" points="264.006 43.05 272.054 43.05 272.054 35.002 264.006 35.002"></polygon>
                    <polygon id="Stroke-67" stroke="#444444" stroke-width="2" stroke-linecap="round" stroke-linejoin="round" mask="url(#mask-2)" points="240.944 47.171 272.054 47.171 272.054 31.104 240.944 31.104"></polygon>
                    <polygon id="Stroke-68" stroke="#444444" stroke-width="2" stroke-linecap="round" stroke-linejoin="round" mask="url(#mask-2)" points="240.944 43.273 272.054 43.273 272.054 35.002 240.944 35.002"></polygon>
                    <path d="M264.5323,39.1374 C264.5323,43.5744 260.9353,47.1704 256.4993,47.1704 C252.0623,47.1704 248.4653,43.5744 248.4653,39.1374 C248.4653,34.7004 252.0623,31.1044 256.4993,31.1044 C260.9353,31.1044 264.5323,34.7004 264.5323,39.1374" id="Fill-69" fill="#FEFEFE" mask="url(#mask-2)"></path>
                    <path d="M264.5323,39.1374 C264.5323,43.5744 260.9353,47.1704 256.4993,47.1704 C252.0623,47.1704 248.4653,43.5744 248.4653,39.1374 C248.4653,34.7004 252.0623,31.1044 256.4993,31.1044 C260.9353,31.1044 264.5323,34.7004 264.5323,39.1374 L264.5323,39.1374 Z" id="Stroke-70" stroke="#444444" stroke-width="2" stroke-linecap="round" stroke-linejoin="round" mask="url(#mask-2)"></path>
                    <path d="M260.6342,39.1374 C260.6342,41.4214 258.7832,43.2724 256.4992,43.2724 C254.2152,43.2724 252.3632,41.4214 252.3632,39.1374 C252.3632,36.8534 254.2152,35.0024 256.4992,35.0024 C258.7832,35.0024 260.6342,36.8534 260.6342,39.1374 L260.6342,39.1374 Z" id="Stroke-71" stroke="#444444" stroke-width="2" stroke-linecap="round" stroke-linejoin="round" mask="url(#mask-2)"></path>
                    <polygon id="Fill-72" fill="#FEFEFE" mask="url(#mask-2)" points="265.527 31.104 269.801 31.104 269.801 27.987 265.527 27.987"></polygon>
                    <polygon id="Stroke-73" stroke="#444444" stroke-width="2" stroke-linecap="round" stroke-linejoin="round" mask="url(#mask-2)" points="265.527 31.104 269.801 31.104 269.801 27.987 265.527 27.987"></polygon>
                    <polygon id="Fill-74" fill="#FEFEFE" mask="url(#mask-2)" points="242.766 31.104 252.364 31.104 252.364 27.987 242.766 27.987"></polygon>
                    <polygon id="Stroke-75" stroke="#444444" stroke-width="2" stroke-linecap="round" stroke-linejoin="round" mask="url(#mask-2)" points="242.766 31.104 252.364 31.104 252.364 27.987 242.766 27.987"></polygon>
                    <polygon id="Fill-76" fill="#FEFEFE" mask="url(#mask-2)" points="256.4989 26.119 252.9239 26.119 251.1829 31.104 261.8149 31.104 260.0739 26.119"></polygon>
                    <polyline id="Stroke-77" stroke="#444444" stroke-width="2" stroke-linecap="round" stroke-linejoin="round" mask="url(#mask-2)" points="256.4989 26.119 252.9239 26.119 251.1829 31.104 261.8149 31.104 260.0739 26.119 256.4989 26.119"></polyline>
                    <polygon id="Stroke-78" stroke="#444444" stroke-width="2" stroke-linecap="round" stroke-linejoin="round" mask="url(#mask-2)" points="7.781 55.803 62.531 55.803 62.531 1.053 7.781 1.053"></polygon>
                    <polygon id="Fill-79" fill="#A5D3F1" mask="url(#mask-2)" points="13.575 50.009 56.737 50.009 56.737 6.847 13.575 6.847"></polygon>
                    <path d="M42.5519,50.0093 L42.5519,43.5433" id="Stroke-80" stroke="#FEFEFE" stroke-width="2" stroke-linecap="round" stroke-linejoin="round" mask="url(#mask-2)"></path>
                    <polygon id="Stroke-81" stroke="#FEFEFE" stroke-width="2" stroke-linecap="round" stroke-linejoin="round" mask="url(#mask-2)" points="21.607 39.5149 30.463 18.9609 39.32 39.5149"></polygon>
                    <polygon id="Fill-82" fill="#A5D3F1" mask="url(#mask-2)" points="35.4055 43.5431 42.5515 26.9581 49.6985 43.5431"></polygon>
                    <polygon id="Stroke-83" stroke="#FEFEFE" stroke-width="2" stroke-linecap="round" stroke-linejoin="round" mask="url(#mask-2)" points="35.4055 43.5431 42.5515 26.9581 49.6985 43.5431"></polygon>
                    <path d="M30.4634,39.5149 L30.4634,50.0089" id="Stroke-84" stroke="#FEFEFE" stroke-width="2" stroke-linecap="round" stroke-linejoin="round" mask="url(#mask-2)"></path>
                    <polygon id="Stroke-85" stroke="#444444" stroke-width="2" stroke-linecap="round" stroke-linejoin="round" mask="url(#mask-2)" points="159.615 53.667 276.804 53.667 276.804 48.917 159.615 48.917"></polygon>
                    <path d="M164.3649,53.6668 L164.3649,58.4168" id="Stroke-86" stroke="#444444" stroke-width="2" stroke-linecap="round" stroke-linejoin="round" mask="url(#mask-2)"></path>
                    <path d="M272.0537,53.6668 L272.0537,58.4168" id="Stroke-87" stroke="#444444" stroke-width="2" stroke-linecap="round" stroke-linejoin="round" mask="url(#mask-2)"></path>
                    <polygon id="Fill-88" fill="#F3838B" mask="url(#mask-2)" points="182.371 48.917 186.933 48.917 186.933 44.355 182.371 44.355"></polygon>
                    <polygon id="Stroke-89" stroke="#444444" stroke-width="2" stroke-linecap="round" stroke-linejoin="round" mask="url(#mask-2)" points="182.371 48.917 186.933 48.917 186.933 21.017 182.371 21.017"></polygon>
                    <path d="M182.3712,44.3548 L186.9332,44.3548" id="Stroke-90" stroke="#444444" stroke-width="2" stroke-linecap="round" stroke-linejoin="round" mask="url(#mask-2)"></path>
                    <polygon id="Stroke-91" stroke="#444444" stroke-width="2" stroke-linecap="round" stroke-linejoin="round" mask="url(#mask-2)" points="201.558 48.915 210.288 48.915 210.288 15.635 201.558 15.635"></polygon>
                    <path d="M210.2883,27.9149 L210.2883,36.6449 C207.8783,36.6449 205.9183,34.6849 205.9183,32.2749 C205.9183,29.8649 207.8783,27.9149 210.2883,27.9149 L210.2883,27.9149 Z" id="Stroke-92" stroke="#444444" stroke-width="2" stroke-linecap="round" stroke-linejoin="round" mask="url(#mask-2)"></path>
                    <polygon id="Fill-93" fill="#90D0B7" mask="url(#mask-2)" points="221.1186 15.0135 225.1716 26.9015 219.2276 28.9285 215.1746 17.0405"></polygon>
                    <polygon id="Stroke-94" stroke="#444444" stroke-width="2" stroke-linecap="round" stroke-linejoin="round" mask="url(#mask-2)" points="231.7345 46.1505 225.7915 48.1765 212.6655 9.6795 218.6085 7.6525"></polygon>
                    <polygon id="Stroke-95" stroke="#444444" stroke-width="2" stroke-linecap="round" stroke-linejoin="round" mask="url(#mask-2)" points="221.1186 15.0135 225.1716 26.9015 219.2276 28.9285 215.1746 17.0405"></polygon>
                    <polygon id="Fill-96" fill="#A5D3F1" mask="url(#mask-2)" points="171.098 20.055 178.098 20.055 178.098 13.055 171.098 13.055"></polygon>
                    <polygon id="Fill-97" fill="#A5D3F1" mask="url(#mask-2)" points="171.098 48.917 178.098 48.917 178.098 41.917 171.098 41.917"></polygon>
                    <polygon id="Stroke-98" stroke="#444444" stroke-width="2" stroke-linecap="round" stroke-linejoin="round" mask="url(#mask-2)" points="171.098 48.917 178.098 48.917 178.098 13.055 171.098 13.055"></polygon>
                    <path d="M171.0976,20.0549 L178.0976,20.0549" id="Stroke-99" stroke="#444444" stroke-width="2" stroke-linecap="round" stroke-linejoin="round" mask="url(#mask-2)"></path>
                    <path d="M171.0976,41.9168 L178.0976,41.9168" id="Stroke-100" stroke="#444444" stroke-width="2" stroke-linecap="round" stroke-linejoin="round" mask="url(#mask-2)"></path>
                    <polygon id="Fill-101" fill="#F9F4B3" mask="url(#mask-2)" points="191.151 33.725 197.431 33.725 197.431 14.885 191.151 14.885"></polygon>
                    <polygon id="Stroke-102" stroke="#444444" stroke-width="2" stroke-linecap="round" stroke-linejoin="round" mask="url(#mask-2)" points="191.154 48.917 197.433 48.917 197.433 5.969 191.154 5.969"></polygon>
                    <path d="M191.1514,14.8848 L197.4314,14.8848" id="Stroke-103" stroke="#444444" stroke-width="2" stroke-linecap="round" stroke-linejoin="round" mask="url(#mask-2)"></path>
                    <path d="M191.1514,33.7249 L197.4314,33.7249" id="Stroke-104" stroke="#444444" stroke-width="2" stroke-linecap="round" stroke-linejoin="round" mask="url(#mask-2)"></path>
                    <polygon id="Stroke-105" stroke="#444444" stroke-width="2" stroke-linecap="round" stroke-linejoin="round" mask="url(#mask-2)" points="301.899 96.803 372.859 96.803 372.859 1.053 301.899 1.053"></polygon>
                    <path d="M345.7986,63.1834 L338.7286,70.2634 C337.1086,69.7834 335.3886,69.5334 333.6086,69.5334 C328.5386,69.5334 323.9586,71.5834 320.6486,74.9034 C317.3386,78.2234 312.7586,80.2734 307.6886,80.2734 L307.6886,51.4334 L318.5186,40.6134 L327.0486,49.1434 L331.7586,49.1434 L345.7986,63.1834 Z" id="Fill-106" fill="#F3838B" mask="url(#mask-2)"></path>
                    <path d="M367.0686,51.4334 L367.0686,80.2734 L359.5286,80.2734 C354.4586,80.2734 349.8786,78.2234 346.5686,74.9034 C344.4186,72.7434 341.7386,71.1234 338.7286,70.2634 L345.7986,63.1834 L352.8786,56.1034 L357.0486,56.1034 L361.7086,51.4334 L367.0686,51.4334 Z" id="Fill-107" fill="#A5D3F1" mask="url(#mask-2)"></path>
                    <path d="M359.5286,80.2734 L348.7586,80.2734 C343.6886,80.2734 339.1086,82.3234 335.7986,85.6434 C332.4886,88.9634 327.9086,91.0134 322.8386,91.0134 L307.6886,91.0134 L307.6886,80.2734 C312.7586,80.2734 317.3386,78.2234 320.6486,74.9034 C323.9586,71.5834 328.5386,69.5334 333.6086,69.5334 C335.3886,69.5334 337.1086,69.7834 338.7286,70.2634 C341.7386,71.1234 344.4186,72.7434 346.5686,74.9034 C349.8786,78.2234 354.4586,80.2734 359.5286,80.2734" id="Fill-108" fill="#90D0B7" mask="url(#mask-2)"></path>
                    <path d="M367.0686,80.2734 L367.0686,91.0134 L322.8386,91.0134 C327.9086,91.0134 332.4886,88.9634 335.7986,85.6434 C339.1086,82.3234 343.6886,80.2734 348.7586,80.2734 L367.0686,80.2734 Z" id="Fill-109" fill="#F9F4B3" mask="url(#mask-2)"></path>
                    <polygon id="Fill-110" fill="#F9F4B3" mask="url(#mask-2)" points="367.0686 6.8434 367.0686 51.4334 361.7086 51.4334 357.0486 56.1034 352.8786 56.1034 345.7986 63.1834 331.7586 49.1434 327.0486 49.1434 318.5186 40.6134 307.6886 51.4334 307.6886 6.8434"></polygon>
                    <path d="M353.9897,37.2466 C353.9897,40.7566 351.1437,43.6026 347.6337,43.6026 C344.1227,43.6026 341.2767,40.7566 341.2767,37.2466 C341.2767,33.7366 344.1227,30.8906 347.6337,30.8906 C351.1437,30.8906 353.9897,33.7366 353.9897,37.2466" id="Fill-111" fill="#FEFEFE" mask="url(#mask-2)"></path>
                    <polygon id="Fill-112" fill="#E0E0E0" mask="url(#mask-2)" points="181.122 177.833 199.954 177.833 199.954 166.769 181.122 166.769"></polygon>
                    <polygon id="Fill-113" fill="#E0E0E0" mask="url(#mask-2)" points="142.672 166.766 238.432 166.766 238.432 153.856 142.672 153.856"></polygon>
                    <polygon id="Fill-114" fill="#444444" mask="url(#mask-2)" points="142.672 153.856 238.432 153.856 238.432 95.806 142.672 95.806"></polygon>
                    <polygon id="Stroke-115" stroke="#444444" stroke-width="2" stroke-linecap="round" stroke-linejoin="round" mask="url(#mask-2)" points="142.672 153.856 238.432 153.856 238.432 95.806 142.672 95.806"></polygon>
                    <polygon id="Fill-116" fill="#595959" mask="url(#mask-2)" points="146.096 151.472 235.004 151.472 235.004 99.229 146.096 99.229"></polygon>
                    <path d="M190.5519,162.314 L190.5519,162.314 C189.3439,162.314 188.3639,161.335 188.3639,160.126 C188.3639,158.918 189.3439,157.939 190.5519,157.939 C191.7599,157.939 192.7399,158.918 192.7399,160.126 C192.7399,161.335 191.7599,162.314 190.5519,162.314" id="Fill-117" fill="#444444" mask="url(#mask-2)"></path>
                    <polyline id="Stroke-118" stroke="#444444" stroke-width="2" stroke-linecap="round" stroke-linejoin="round" mask="url(#mask-2)" points="190.5519 166.7687 199.4809 166.7687 200.4819 177.8327 180.6219 177.8327 181.6229 166.7687 190.5519 166.7687"></polyline>
                    <path d="M173.9378,177.8331 L207.1658,177.8331" id="Stroke-119" stroke="#444444" stroke-width="2" stroke-linecap="round" stroke-linejoin="round" mask="url(#mask-2)"></path>
                    <polygon id="Stroke-120" stroke="#444444" stroke-width="2" stroke-linecap="round" stroke-linejoin="round" mask="url(#mask-2)" points="142.672 166.766 238.432 166.766 238.432 153.856 142.672 153.856"></polygon>
                    <path d="M74.3619,149.1635 L70.5519,158.6735" id="Stroke-121" stroke="#F9F4B3" stroke-width="2" stroke-linecap="round" stroke-linejoin="round" mask="url(#mask-2)"></path>
                    <path d="M64.9419,158.6735 L61.1719,149.1535" id="Stroke-122" stroke="#A5D3F1" stroke-width="2" stroke-linecap="round" stroke-linejoin="round" mask="url(#mask-2)"></path>
                    <path d="M79.3419,148.3335 L73.3719,158.6735" id="Stroke-123" stroke="#F3838B" stroke-width="2" stroke-linecap="round" stroke-linejoin="round" mask="url(#mask-2)"></path>
                    <polygon id="Fill-124" fill="#FEFEFE" mask="url(#mask-2)" points="62.102 178.713 76.122 178.713 76.122 158.673 62.102 158.673"></polygon>
                    <polygon id="Stroke-125" stroke="#444444" stroke-width="2" stroke-linecap="round" stroke-linejoin="round" mask="url(#mask-2)" points="62.102 178.713 76.122 178.713 76.122 158.673 62.102 158.673"></polygon>
                    <path d="M294.2719,154.2317 L294.2719,127.9817" id="Stroke-126" stroke="#90D0B7" stroke-width="2" stroke-linecap="round" stroke-linejoin="round" mask="url(#mask-2)"></path>
                    <path d="M302.2719,154.2317 L302.2719,147.1117" id="Stroke-127" stroke="#90D0B7" stroke-width="2" stroke-linecap="round" stroke-linejoin="round" mask="url(#mask-2)"></path>
                    <path d="M288.8553,122.565 C288.8553,125.559 291.2783,127.982 294.2723,127.982 C294.2723,124.988 291.8493,122.565 288.8553,122.565 L288.8553,122.565 Z" id="Stroke-128" stroke="#90D0B7" stroke-width="2" stroke-linecap="round" stroke-linejoin="round" mask="url(#mask-2)"></path>
                    <path d="M302.2719,147.1115 C305.2659,147.1115 307.6889,144.6885 307.6889,141.6945 C304.6949,141.6945 302.2719,144.1175 302.2719,147.1115 L302.2719,147.1115 Z" id="Stroke-129" stroke="#90D0B7" stroke-width="2" stroke-linecap="round" stroke-linejoin="round" mask="url(#mask-2)"></path>
                    <path d="M298.2719,136.6483 C301.2659,136.6483 303.6889,134.2253 303.6889,131.2313 C300.6949,131.2313 298.2719,133.6543 298.2719,136.6483 L298.2719,136.6483 Z" id="Stroke-130" stroke="#90D0B7" stroke-width="2" stroke-linecap="round" stroke-linejoin="round" mask="url(#mask-2)"></path>
                    <path d="M288.8553,137.0266 C288.8553,140.0206 291.2783,142.4436 294.2723,142.4436 C294.2723,139.4496 291.8493,137.0266 288.8553,137.0266 L288.8553,137.0266 Z" id="Stroke-131" stroke="#90D0B7" stroke-width="2" stroke-linecap="round" stroke-linejoin="round" mask="url(#mask-2)"></path>
                    <path d="M298.2719,154.2317 L298.2719,136.6487" id="Stroke-132" stroke="#90D0B7" stroke-width="2" stroke-linecap="round" stroke-linejoin="round" mask="url(#mask-2)"></path>
                    <polygon id="Fill-133" fill="#FEFEFE" mask="url(#mask-2)" points="289.395 180.862 307.15 180.862 307.15 154.232 289.395 154.232"></polygon>
                    <polygon id="Stroke-134" stroke="#444444" stroke-width="2" stroke-linecap="round" stroke-linejoin="round" mask="url(#mask-2)" points="289.395 180.862 307.15 180.862 307.15 154.232 289.395 154.232"></polygon>
                    <polygon id="Fill-135" fill="#FEFEFE" mask="url(#mask-2)" points="341.5546 181.3607 342.8156 163.0947 325.0916 163.0947 326.3526 181.3607"></polygon>
                    <polygon id="Stroke-136" stroke="#444444" stroke-width="2" stroke-linecap="round" stroke-linejoin="round" mask="url(#mask-2)" points="341.5546 181.3607 342.8156 163.0947 325.0916 163.0947 326.3526 181.3607"></polygon>
                    <path d="M342.8154,163.0944 C346.5984,163.0944 349.6654,166.1614 349.6654,169.9444 C349.6654,173.7274 346.5984,176.7944 342.8154,176.7944" id="Stroke-137" stroke="#444444" stroke-width="2" stroke-linecap="round" stroke-linejoin="round" mask="url(#mask-2)"></path>
                    <path d="M329.986,158.9435 C329.986,155.8945 331.334,153.1735 333.476,151.3475" id="Stroke-138" stroke="#E0E0E0" stroke-width="2" stroke-linecap="round" stroke-linejoin="round" mask="url(#mask-2)"></path>
                    <path d="M338.5327,158.9435 C338.5327,155.8945 339.8807,153.1735 342.0227,151.3475" id="Stroke-139" stroke="#E0E0E0" stroke-width="2" stroke-linecap="round" stroke-linejoin="round" mask="url(#mask-2)"></path>
                    <path d="M336.965,143.7509 C336.965,146.7999 335.617,149.5209 333.475,151.3469" id="Stroke-140" stroke="#E0E0E0" stroke-width="2" stroke-linecap="round" stroke-linejoin="round" mask="url(#mask-2)"></path>
                    <polygon id="Fill-141" fill="#FEFEFE" mask="url(#mask-2)" points="246.135 178.425 264.34 178.425 264.34 151.061 246.135 151.061"></polygon>
                    <polygon id="Stroke-142" stroke="#444444" stroke-width="2" stroke-linecap="round" stroke-linejoin="round" mask="url(#mask-2)" points="246.135 178.425 264.34 178.425 264.34 151.061 246.135 151.061"></polygon>
                    <path d="M259.789,169.3227 C259.789,171.8367 257.751,173.8737 255.238,173.8737 C252.724,173.8737 250.686,171.8367 250.686,169.3227 C250.686,166.8087 252.724,164.7717 255.238,164.7717 C257.751,164.7717 259.789,166.8087 259.789,169.3227 L259.789,169.3227 Z" id="Stroke-143" stroke="#444444" stroke-width="2" stroke-linecap="round" stroke-linejoin="round" mask="url(#mask-2)"></path>
                    <path d="M257.8172,158.5123 C257.8172,159.9373 256.6622,161.0913 255.2382,161.0913 C253.8132,161.0913 252.6582,159.9373 252.6582,158.5123 C252.6582,157.0873 253.8132,155.9333 255.2382,155.9333 C256.6622,155.9333 257.8172,157.0873 257.8172,158.5123 L257.8172,158.5123 Z" id="Stroke-144" stroke="#444444" stroke-width="2" stroke-linecap="round" stroke-linejoin="round" mask="url(#mask-2)"></path>
                    <polygon id="Fill-145" fill="#FEFEFE" mask="url(#mask-2)" points="116.764 178.425 134.969 178.425 134.969 151.061 116.764 151.061"></polygon>
                    <polygon id="Stroke-146" stroke="#444444" stroke-width="2" stroke-linecap="round" stroke-linejoin="round" mask="url(#mask-2)" points="116.764 178.425 134.969 178.425 134.969 151.061 116.764 151.061"></polygon>
                    <path d="M130.4173,169.3227 C130.4173,171.8367 128.3793,173.8737 125.8663,173.8737 C123.3523,173.8737 121.3143,171.8367 121.3143,169.3227 C121.3143,166.8087 123.3523,164.7717 125.8663,164.7717 C128.3793,164.7717 130.4173,166.8087 130.4173,169.3227 L130.4173,169.3227 Z" id="Stroke-147" stroke="#444444" stroke-width="2" stroke-linecap="round" stroke-linejoin="round" mask="url(#mask-2)"></path>
                    <path d="M128.4455,158.5123 C128.4455,159.9373 127.2905,161.0913 125.8665,161.0913 C124.4415,161.0913 123.2865,159.9373 123.2865,158.5123 C123.2865,157.0873 124.4415,155.9333 125.8665,155.9333 C127.2905,155.9333 128.4455,157.0873 128.4455,158.5123 L128.4455,158.5123 Z" id="Stroke-148" stroke="#444444" stroke-width="2" stroke-linecap="round" stroke-linejoin="round" mask="url(#mask-2)"></path>
                    <path d="M75.0129,265.9956 L74.9529,266.2356 C74.9429,266.2556 74.9329,266.2856 74.9129,266.3056 C74.8829,266.3656 74.8429,266.4156 74.7829,266.4756 C73.3929,268.0356 65.2529,269.2456 55.4129,269.2456 C45.5729,269.2456 37.4329,268.0356 36.0429,266.4756 C35.9829,266.4156 35.9429,266.3656 35.9129,266.3056 C35.8929,266.2856 35.8829,266.2556 35.8729,266.2356 L35.8129,265.9956 C35.8129,264.1956 44.5829,262.7456 55.4129,262.7456 C66.2329,262.7456 75.0129,264.1956 75.0129,265.9956 L75.0129,265.9956 Z" id="Stroke-149" stroke="#444444" stroke-width="2" stroke-linecap="round" stroke-linejoin="round" mask="url(#mask-2)"></path>
                    <path d="M70.103,303.7356 C70.113,303.7656 70.113,303.7856 70.113,303.8156 C70.113,306.5156 63.533,308.6956 55.413,308.6956 C47.293,308.6956 40.713,306.5156 40.713,303.8156 L40.713,303.7656 L35.913,266.3056 C35.943,266.3656 35.983,266.4156 36.043,266.4756 C37.433,268.0356 45.573,269.2456 55.413,269.2456 C65.253,269.2456 73.393,268.0356 74.783,266.4756 C74.843,266.4156 74.883,266.3656 74.913,266.3056 L70.103,303.7356 Z" id="Fill-150" fill="#FEFEFE" mask="url(#mask-2)"></path>
                    <path d="M70.103,303.7356 C70.113,303.7656 70.113,303.7856 70.113,303.8156 C70.113,306.5156 63.533,308.6956 55.413,308.6956 C47.293,308.6956 40.713,306.5156 40.713,303.8156 L40.713,303.7656 L35.913,266.3056 C35.943,266.3656 35.983,266.4156 36.043,266.4756 C37.433,268.0356 45.573,269.2456 55.413,269.2456 C65.253,269.2456 73.393,268.0356 74.783,266.4756 C74.843,266.4156 74.883,266.3656 74.913,266.3056 L70.103,303.7356 L70.103,303.7356 Z" id="Stroke-151" stroke="#444444" stroke-width="2" stroke-linecap="round" stroke-linejoin="round" mask="url(#mask-2)"></path>
                    <path d="M163.4284,182.3615 L217.6754,182.3615" id="Stroke-152" stroke="#444444" stroke-width="2" stroke-linecap="round" stroke-linejoin="round" mask="url(#mask-2)"></path>
                    <path d="M229.1199,183.5901 C229.1199,181.0201 231.2029,178.9361 233.7739,178.9361 C236.3439,178.9361 238.4269,181.0201 238.4269,183.5901 L229.1199,183.5901 L229.1199,183.5901 Z" id="Stroke-153" stroke="#444444" stroke-width="2" stroke-linecap="round" stroke-linejoin="round" mask="url(#mask-2)"></path>
                    <polygon id="Stroke-154" stroke="#444444" stroke-width="2" stroke-linecap="round" stroke-linejoin="round" mask="url(#mask-2)" points="316.16 247.134 331.14 247.134 331.14 224.524 316.16 224.524"></polygon>
                    <path d="M321.7414,230.2489 L321.7414,233.0659" id="Stroke-155" stroke="#444444" stroke-width="2" stroke-linecap="round" stroke-linejoin="round" mask="url(#mask-2)"></path>
                    <path d="M325.5589,230.2489 L325.5589,233.0659" id="Stroke-156" stroke="#444444" stroke-width="2" stroke-linecap="round" stroke-linejoin="round" mask="url(#mask-2)"></path>
                    <path d="M321.7414,238.5925 L321.7414,241.4095" id="Stroke-157" stroke="#444444" stroke-width="2" stroke-linecap="round" stroke-linejoin="round" mask="url(#mask-2)"></path>
                    <path d="M325.5589,238.5925 L325.5589,241.4095" id="Stroke-158" stroke="#444444" stroke-width="2" stroke-linecap="round" stroke-linejoin="round" mask="url(#mask-2)"></path>
                    <path d="M294.2719,208.0178 C294.2719,221.0838 304.8449,231.6568 317.9109,231.6568" id="Stroke-159" stroke="#444444" stroke-width="2" stroke-linecap="round" stroke-linejoin="round" mask="url(#mask-2)"></path>
                    <path d="M325.5714,229.1022 L325.5714,234.2122 L320.4614,234.2122 C319.0514,234.2122 317.9114,233.0722 317.9114,231.6622 C317.9114,230.2422 319.0514,229.1022 320.4614,229.1022 L325.5714,229.1022 Z" id="Fill-160" fill="#FEFEFE" mask="url(#mask-2)"></path>
                    <path d="M325.5714,229.1022 L325.5714,234.2122 L320.4614,234.2122 C319.0514,234.2122 317.9114,233.0722 317.9114,231.6622 C317.9114,230.2422 319.0514,229.1022 320.4614,229.1022 L325.5714,229.1022 L325.5714,229.1022 Z" id="Stroke-161" stroke="#444444" stroke-width="2" stroke-linecap="round" stroke-linejoin="round" mask="url(#mask-2)"></path>
                    <polygon id="Fill-162" fill="#595959" mask="url(#mask-2)" points="182.459 227.74 198.645 227.74 198.645 222.438 182.459 222.438"></polygon>
                    <polygon id="Stroke-163" stroke="#444444" stroke-width="2" stroke-linecap="round" stroke-linejoin="round" mask="url(#mask-2)" points="182.459 227.74 198.645 227.74 198.645 222.438 182.459 222.438"></polygon>
                    <path d="M163.0306,311.973 C163.0306,313.645 161.6756,315 160.0036,315 C158.3316,315 156.9766,313.645 156.9766,311.973 C156.9766,310.301 158.3316,308.946 160.0036,308.946 C161.6756,308.946 163.0306,310.301 163.0306,311.973" id="Fill-164" fill="#595959" mask="url(#mask-2)"></path>
                    <path d="M193.5789,311.973 C193.5789,313.645 192.2239,315 190.5519,315 C188.8799,315 187.5249,313.645 187.5249,311.973 C187.5249,310.301 188.8799,308.946 190.5519,308.946 C192.2239,308.946 193.5789,310.301 193.5789,311.973" id="Fill-165" fill="#595959" mask="url(#mask-2)"></path>
                    <path d="M228.3112,311.973 C228.3112,313.645 226.9562,315 225.2842,315 C223.6122,315 222.2572,313.645 222.2572,311.973 C222.2572,310.301 223.6122,308.946 225.2842,308.946 C226.9562,308.946 228.3112,310.301 228.3112,311.973" id="Fill-166" fill="#595959" mask="url(#mask-2)"></path>
                    <polygon id="Fill-167" fill="#E0E0E0" mask="url(#mask-2)" points="224.1319 300.3756 224.1319 305.0556 190.5519 300.3756 156.9719 305.0556 156.9719 300.3756 186.5219 291.8856 194.5819 291.8856"></polygon>
                    <polygon id="Fill-168" fill="#E0E0E0" mask="url(#mask-2)" points="188.281 261.85 192.824 261.85 192.824 227.74 188.281 227.74"></polygon>
                    <polygon id="Fill-169" fill="#E0E0E0" mask="url(#mask-2)" points="186.522 291.886 194.582 291.886 194.582 261.846 186.522 261.846"></polygon>
                    <path d="M161.9025,222.4374 L219.2015,222.4374 C224.0725,222.4374 228.4025,219.3354 229.9695,214.7234 L229.9695,214.7234 C231.2085,211.0764 231.4975,207.1734 230.8095,203.3834 L222.2205,156.1114 C221.3375,151.2464 217.1005,147.7104 212.1555,147.7104 L168.9475,147.7104 C164.0035,147.7104 159.7665,151.2464 158.8825,156.1114 L150.2945,203.3834 C149.6055,207.1734 149.8955,211.0764 151.1345,214.7234 L151.1345,214.7234 C152.7015,219.3354 157.0315,222.4374 161.9025,222.4374" id="Fill-170" fill="#FEFEFE" mask="url(#mask-2)"></path>
                    <path d="M161.9025,222.4374 L219.2015,222.4374 C224.0725,222.4374 228.4025,219.3354 229.9695,214.7234 L229.9695,214.7234 C231.2085,211.0764 231.4975,207.1734 230.8095,203.3834 L222.2205,156.1114 C221.3375,151.2464 217.1005,147.7104 212.1555,147.7104 L168.9475,147.7104 C164.0035,147.7104 159.7665,151.2464 158.8825,156.1114 L150.2945,203.3834 C149.6055,207.1734 149.8955,211.0764 151.1345,214.7234 L151.1345,214.7234 C152.7015,219.3354 157.0315,222.4374 161.9025,222.4374 L161.9025,222.4374 Z" id="Stroke-171" stroke="#444444" stroke-width="2" stroke-linecap="round" stroke-linejoin="round" mask="url(#mask-2)"></path>
                    <path d="M194.4282,160.0714 C194.4282,162.2124 192.6932,163.9474 190.5522,163.9474 C188.4112,163.9474 186.6752,162.2124 186.6752,160.0714 C186.6752,157.9304 188.4112,156.1954 190.5522,156.1954 C192.6932,156.1954 194.4282,157.9304 194.4282,160.0714 L194.4282,160.0714 Z" id="Stroke-172" stroke="#444444" stroke-width="2" stroke-linecap="round" stroke-linejoin="round" mask="url(#mask-2)"></path>
                    <path d="M198.6448,226.1347 L209.9288,226.1347" id="Stroke-173" stroke="#444444" stroke-width="2" stroke-linecap="round" stroke-linejoin="round" mask="url(#mask-2)"></path>
                    <path d="M209.9291,226.1347 L223.3271,229.5677" id="Stroke-174" stroke="#444444" stroke-width="2" stroke-linecap="round" stroke-linejoin="round" mask="url(#mask-2)"></path>
                    <polygon id="Stroke-175" stroke="#444444" stroke-width="2" stroke-linecap="round" stroke-linejoin="round" mask="url(#mask-2)" points="188.281 261.85 192.824 261.85 192.824 227.74 188.281 227.74"></polygon>
                    <polygon id="Stroke-176" stroke="#444444" stroke-width="2" stroke-linecap="round" stroke-linejoin="round" mask="url(#mask-2)" points="186.522 291.886 194.582 291.886 194.582 261.846 186.522 261.846"></polygon>
                    <polygon id="Stroke-177" stroke="#444444" stroke-width="2" stroke-linecap="round" stroke-linejoin="round" mask="url(#mask-2)" points="224.1319 300.3756 224.1319 305.0556 190.5519 300.3756 156.9719 305.0556 156.9719 300.3756 186.5219 291.8856 194.5819 291.8856"></polygon>
                    <path d="M156.9766,305.0567 L156.9766,311.9727" id="Stroke-178" stroke="#444444" stroke-width="2" stroke-linecap="round" stroke-linejoin="round" mask="url(#mask-2)"></path>
                    <path d="M224.1272,305.0567 L224.1272,308.9457" id="Stroke-179" stroke="#444444" stroke-width="2" stroke-linecap="round" stroke-linejoin="round" mask="url(#mask-2)"></path>
                    <path d="M163.0306,311.973 C163.0306,313.645 161.6756,315 160.0036,315 C158.3316,315 156.9766,313.645 156.9766,311.973 C156.9766,310.301 158.3316,308.946 160.0036,308.946 C161.6756,308.946 163.0306,310.301 163.0306,311.973 L163.0306,311.973 Z" id="Stroke-180" stroke="#444444" stroke-width="2" stroke-linecap="round" stroke-linejoin="round" mask="url(#mask-2)"></path>
                    <path d="M193.5789,311.973 C193.5789,313.645 192.2239,315 190.5519,315 C188.8799,315 187.5249,313.645 187.5249,311.973 C187.5249,310.301 188.8799,308.946 190.5519,308.946 C192.2239,308.946 193.5789,310.301 193.5789,311.973 L193.5789,311.973 Z" id="Stroke-181" stroke="#444444" stroke-width="2" stroke-linecap="round" stroke-linejoin="round" mask="url(#mask-2)"></path>
                    <path d="M228.3112,311.973 C228.3112,313.645 226.9562,315 225.2842,315 C223.6122,315 222.2572,313.645 222.2572,311.973 C222.2572,310.301 223.6122,308.946 225.2842,308.946 C226.9562,308.946 228.3112,310.301 228.3112,311.973 L228.3112,311.973 Z" id="Stroke-182" stroke="#444444" stroke-width="2" stroke-linecap="round" stroke-linejoin="round" mask="url(#mask-2)"></path>
                    <path d="M190.5519,308.946 L190.5519,300.375" id="Stroke-183" stroke="#444444" stroke-width="2" stroke-linecap="round" stroke-linejoin="round" mask="url(#mask-2)"></path>
                </g>
            </g>
        </g>
    </g>
</svg>